<svg xmlns="http://www.w3.org/2000/svg" xmlns:xlink="http://www.w3.org/1999/xlink" width="278.463" height="43.962" viewBox="0 0 278.463 43.962">
  <defs>
    <clipPath id="clip-path">
      <rect id="Rectangle_45834" data-name="Rectangle 45834" width="278.463" height="43.961" fill="none"/>
    </clipPath>
  </defs>
  <g id="Component_113_1" data-name="Component 113 – 1" transform="translate(0)">
    <rect id="Rectangle_45833" data-name="Rectangle 45833" width="4.893" height="25.18" transform="translate(85.223 10.273)" fill="#2a3362"/>
    <g id="Group_112314" data-name="Group 112314" transform="translate(0 0)">
      <g id="Group_112313" data-name="Group 112313" clip-path="url(#clip-path)">
        <path id="Path_53613" data-name="Path 53613" d="M272.124,57.267c0,3.476-2.236,5.037-5.213,5.037s-4.967-1.561-4.967-4.86V48.47h-4.893V58.58c0,5.033,3.156,7.977,8.406,7.977a7.94,7.94,0,0,0,6.379-2.589h.284l.426,2.236h4.5V48.47h-4.923Z" transform="translate(-163.068 -30.748)" fill="#2a3362"/>
        <path id="Path_53614" data-name="Path 53614" d="M410.824,62.075c-3.582,0-5.6-1.631-5.92-4.006h15.532a10.438,10.438,0,0,0,.106-1.492c-.033-6.379-4.861-9.08-10.025-9.08-5.993,0-10.5,3.585-10.5,9.366,0,5.495,4.329,9.077,10.819,9.077,5.429,0,9.042-2.409,9.79-6.1h-4.836c-.6,1.456-2.341,2.236-4.966,2.236Zm-.3-10.709c3.123,0,4.93,1.381,5.215,3.341H405.009c.459-1.878,2.269-3.341,5.495-3.341h.016Z" transform="translate(-253.763 -30.131)" fill="#2a3362"/>
        <path id="Path_53615" data-name="Path 53615" d="M469.846,51h-.3l-.462-2.555h-4.447V66.188h4.893V58.564c0-3.443,1.984-5.356,5.675-5.356a9.845,9.845,0,0,1,2,.176v-4.93h-.684c-3.262,0-5.287.674-6.67,2.545Z" transform="translate(-294.753 -30.732)" fill="#2a3362"/>
        <path id="Path_53616" data-name="Path 53616" d="M525.341,60.67h-.281l-4.187-11.1h-5.036l-4.114,11.067h-.318L507.5,48.47h-4.86L508.637,66.2h5.322l4.255-11.316h.284L522.683,66.2h5.355l5.995-17.734h-4.86Z" transform="translate(-318.867 -30.748)" fill="#2a3362"/>
        <path id="Path_53617" data-name="Path 53617" d="M608.352,60.429V54.493c0-4.824-4.08-6.987-9.153-6.987-5.389,0-8.759,2.555-9.221,6.379h4.9c.355-1.668,1.773-2.589,4.325-2.589s4.253.957,4.253,2.908v.452l-7.98.607c-3.688.285-6.379,1.918-6.379,5.392,0,3.582,3.087,5.283,7.624,5.283,3.665,0,5.9-1.02,7.264-2.561h.242c.769,1.733,2.327,2.208,4.021,2.208H610.3V61.974h-.462c-1.029,0-1.487-.495-1.487-1.545Zm-4.9-1.88c0,2.8-3.341,3.723-6.207,3.723-1.951,0-3.226-.5-3.226-1.843,0-1.215,1.1-1.807,2.734-1.951l6.7-.5Z" transform="translate(-373.708 -30.137)" fill="#2a3362"/>
        <path id="Path_53618" data-name="Path 53618" d="M661.588,48.47l-5.71,12.841h-.32L649.777,48.47h-5.286L652.755,66.2h5.854l8.226-17.734Z" transform="translate(-408.852 -30.748)" fill="#2a3362"/>
        <path id="Path_53619" data-name="Path 53619" d="M721.028,59.839c-.608,1.455-2.341,2.235-4.967,2.235-3.582,0-5.6-1.631-5.921-4.006h15.532a10.437,10.437,0,0,0,.106-1.492c-.033-6.379-4.86-9.08-10.025-9.08-5.993,0-10.5,3.585-10.5,9.366,0,5.495,4.326,9.077,10.814,9.077,5.43,0,9.044-2.409,9.791-6.1h-4.836Zm-5.286-8.474c3.123,0,4.93,1.381,5.216,3.341H710.234c.465-1.878,2.268-3.341,5.5-3.341Z" transform="translate(-447.401 -30.131)" fill="#2a3362"/>
        <path id="Path_53620" data-name="Path 53620" d="M195.464,34.249c0-1.56,1.1-2.232,2.519-2.232a7.337,7.337,0,0,1,1.951.283l.816-3.549a11.138,11.138,0,0,0-3.687-.638c-3.619,0-6.525,1.917-6.525,5.887v1.555h-4.223v3.886h4.223V53.29h4.927V39.439h5.517V35.556h-5.517V34.249Z" transform="translate(-118.194 -17.835)" fill="#2a3362"/>
        <path id="Path_53621" data-name="Path 53621" d="M326.249,34.8h-4.556l-.255,5h-3.853v3.886h3.761v8.741c0,2.977,1.519,5.468,6.076,5.468a16.118,16.118,0,0,0,3.512-.388V53.769a10.355,10.355,0,0,1-2.024.248c-2.446,0-2.658-1.381-2.658-2.447v-7.9h4.861V39.8h-4.864Z" transform="translate(-201.469 -22.074)" fill="#2a3362"/>
        <path id="Path_53622" data-name="Path 53622" d="M368.29,34.8h-4.541l-.254,5h-3.862v3.886h3.761v8.741c0,2.977,1.519,5.468,6.076,5.468a16.012,16.012,0,0,0,3.5-.4V53.769a10.348,10.348,0,0,1-2.023.248c-2.445,0-2.658-1.381-2.658-2.447v-7.9h4.876V39.8H368.29Z" transform="translate(-228.143 -22.074)" fill="#2a3362"/>
        <path id="Path_53623" data-name="Path 53623" d="M0,14.077A9.608,9.608,0,0,1,2.579,7.054l3.038,3.038c-3.381,3.369-.427,13.842,9.2,23.479S34.921,46.155,38.3,42.78l3.038,3.038c-5.7,5.7-18.68,1.655-29.544-9.213C4.256,29.065,0,20.51,0,14.078Z" transform="translate(0 -4.475)" fill="#009a46"/>
        <path id="Path_53624" data-name="Path 53624" d="M40.2,48.5a9.619,9.619,0,0,1-7.026-2.579l3.038-3.038c3.374,3.375,13.848.423,23.483-9.211s12.583-20.106,9.208-23.48l3.038-3.038c5.7,5.7,1.655,18.678-9.214,29.544C55.19,44.248,46.636,48.5,40.2,48.5Z" transform="translate(-21.047 -4.539)" fill="#ff5805"/>
        <path id="Path_53625" data-name="Path 53625" d="M46.8,27.885c-1.845-5.31-5.61-10.983-10.608-15.978C25.324,1.038,12.345-3.008,6.646,2.695c-.4.407-.054,1.413.785,2.249s1.843,1.185,2.248.782C13.057,2.351,23.53,5.3,33.162,14.939c4.557,4.556,7.954,9.645,9.59,14.353,1.435,4.129,1.294,7.458-.377,9.129-.407.4-.054,1.413.782,2.248s1.843,1.187,2.251.78c2.919-2.919,3.414-7.743,1.39-13.563Z" transform="translate(-4.11 -0.073)" fill="#f5afcb"/>
        <path id="Path_53626" data-name="Path 53626" d="M67.465,2.623C64.54-.3,59.722-.8,53.9,1.227,48.589,3.069,42.912,6.839,37.918,11.832,27.051,22.7,23.006,35.678,28.7,41.38c.407.4,1.413.056,2.25-.78s1.188-1.844.781-2.251c-3.384-3.375-.422-13.849,9.213-23.486A39.85,39.85,0,0,1,55.3,5.274c4.129-1.43,7.458-1.294,9.132.377.4.4,1.412.056,2.248-.783s1.186-1.842.783-2.245Z" transform="translate(-16.574 -0.001)" fill="#ff9b00"/>
      </g>
    </g>
  </g>
</svg>
