<svg id="Component_248_1" data-name="Component 248 – 1" xmlns="http://www.w3.org/2000/svg" xmlns:xlink="http://www.w3.org/1999/xlink" width="165" height="33.633" viewBox="0 0 165 33.633">
  <defs>
    <clipPath id="clip-path">
      <rect id="Rectangle_45809" data-name="Rectangle 45809" width="157.129" height="33.16" fill="#fff"/>
    </clipPath>
  </defs>
  <text id="RC_1774476" data-name="RC 1774476" transform="translate(123 6)" fill="#fff" font-size="7" font-family="SoinSansNeue-Light, Soin Sans Neue" font-weight="300"><tspan x="0" y="0">RC 1774476</tspan></text>
  <g id="Component_101_11" data-name="Component 101 – 11" transform="translate(0 0.473)">
    <g id="Group_112300" data-name="Group 112300" clip-path="url(#clip-path)">
      <path id="Path_53278" data-name="Path 53278" d="M172.9,22.618h-4.082v8.526H165.76V7.772H172.9c4.872,0,8.032,3.226,8.032,7.44s-3.16,7.407-8.032,7.407m0-11.982h-4.082v9.151H172.9c3.226,0,5-1.975,5-4.576s-1.777-4.576-5-4.576" transform="translate(-118.607 -5.561)" fill="#fff"/>
      <path id="Path_53279" data-name="Path 53279" d="M225.817,39.476c0-4.707,3.456-8.559,8.065-8.559a7.169,7.169,0,0,1,5.794,2.864V31.246h2.832v16.46h-2.832V45.171a7.169,7.169,0,0,1-5.794,2.864c-4.609,0-8.065-3.852-8.065-8.559m14.089,0a5.623,5.623,0,1,0-11.225,0,5.623,5.623,0,1,0,11.225,0" transform="translate(-161.58 -22.122)" fill="#fff"/>
      <path id="Path_53280" data-name="Path 53280" d="M298.4,55.414l3.588-7.736-7.209-15.6h3.127l5.662,12.509L309.2,32.074h3.16l-10.8,23.339Z" transform="translate(-210.928 -22.95)" fill="#fff"/>
      <path id="Path_53281" data-name="Path 53281" d="M362.609,13.477h-3.49v-2.6h3.49V7.551c0-3.424,2.139-5.1,5.036-5.1a7.478,7.478,0,0,1,2.568.428v2.5a5.774,5.774,0,0,0-2.041-.329c-1.843,0-2.732.691-2.732,2.8v3.029h4.773v2.6H365.44V27.336h-2.831Zm10.106-9.02a2.023,2.023,0,0,1,2.041-2.008,1.967,1.967,0,0,1,1.975,2.008,1.928,1.928,0,0,1-1.975,2.008,1.983,1.983,0,0,1-2.041-2.008m.593,6.419h2.831V27.336h-2.831Z" transform="translate(-256.963 -1.752)" fill="#fff"/>
      <path id="Path_53282" data-name="Path 53282" d="M437.538,42.311l-5,6.222h-3.523L435.76,40.2l-6.189-8.131h3.424l4.543,5.958,4.51-5.958H445.5L439.282,40.2l6.748,8.329h-3.489Z" transform="translate(-306.973 -22.95)" fill="#fff"/>
      <path id="Path_53283" data-name="Path 53283" d="M494.194,55.414l3.588-7.736-7.209-15.6H493.7l5.662,12.509,5.629-12.509h3.16l-10.8,23.339Z" transform="translate(-351.022 -22.95)" fill="#fff"/>
      <path id="Path_53284" data-name="Path 53284" d="M10.208,24.241h-.088a2.429,2.429,0,0,1-2.429-2.429h0a7.051,7.051,0,0,1,.591-2.886,5.748,5.748,0,0,1,2.939-2.968,7.956,7.956,0,0,1,3.273-.636h9.564a6.522,6.522,0,0,0,6.547-6.513,6.41,6.41,0,0,0-6.4-6.293H.04A2.517,2.517,0,0,1,2.556,0h21.48a9.029,9.029,0,0,1,9.084,8.7A8.929,8.929,0,0,1,24.2,17.838H14.5a5.469,5.469,0,0,0-2.241.416,3.224,3.224,0,0,0-1.669,1.689,4.612,4.612,0,0,0-.377,1.8v2.5Z" transform="translate(-0.029 0)" fill="#fff"/>
      <path id="Path_53285" data-name="Path 53285" d="M22.455,26.931H8.919A8.929,8.929,0,0,0,0,35.809c0,.014,0,.028,0,.042v7.66A8.929,8.929,0,0,0,8.92,52.43h.162a8.937,8.937,0,0,0,8.659-7.605l.03-1.175,0-.186a1.246,1.246,0,0,0-1.253-1.216H16.5a1.25,1.25,0,0,0-1.243,1.25v.926a6.413,6.413,0,0,1-6.335,5.492H8.868a6.41,6.41,0,0,1-6.351-6.4V35.774a6.409,6.409,0,0,1,6.4-6.326H22.455v-.016a2.524,2.524,0,0,0,2.236-2.5Z" transform="translate(0 -19.27)" fill="#b11e31"/>
    </g>
  </g>
</svg>
