<svg xmlns="http://www.w3.org/2000/svg" width="42.686" height="47.414" viewBox="0 0 42.686 47.414">
  <g id="Component_53_1" data-name="Component 53 – 1" transform="translate(0)">
    <path id="Path_52919" data-name="Path 52919" d="M-2398.315,1839.307c-.262-.077-.526-.148-.785-.233a4.747,4.747,0,0,1-3.288-4.649q-.006-11.019,0-22.039c0-1.266-.006-2.531,0-3.8a4.734,4.734,0,0,1,4.826-4.842q2.894-.015,5.787,0a1.182,1.182,0,0,1,1.22.986,1.157,1.157,0,0,1-.708,1.271,2.349,2.349,0,0,1-.771.111c-1.882.01-3.765-.017-5.647.015a2.334,2.334,0,0,0-2.2,3.14,2.322,2.322,0,0,0,2.133,1.585c.153.014.308.007.463.007h30.421v-4.742c-1.041,0-2.055,0-3.07,0a4.049,4.049,0,0,1-.646-.035,1.141,1.141,0,0,1-.987-1.2,1.127,1.127,0,0,1,1.079-1.122c1.635-.026,3.271-.023,4.906,0a1.119,1.119,0,0,1,1.088,1.013,3.7,3.7,0,0,1,.03.553q0,2.5,0,5v.54c1.107,0,2.154.032,3.2-.011a1.415,1.415,0,0,1,1.556.948v26.579a1.656,1.656,0,0,1-.926.926Zm-1.7-26.741v.517q0,10.626,0,21.252a2.367,2.367,0,0,0,2.625,2.594q17.382,0,34.763,0h.483v-7.1h-.592q-3.68,0-7.36,0c-1.061,0-1.477-.423-1.477-1.491q0-3.264,0-6.528c0-1.057.424-1.475,1.492-1.475q3.726,0,7.453,0h.488v-7.112h-.628q-16.965,0-33.93,0A5.965,5.965,0,0,1-2400.013,1812.566Zm30.838,10.169v4.687h7.039v-4.687Z" transform="translate(2402.391 -1791.893)" fill="#b11e31"/>
    <path id="Path_52920" data-name="Path 52920" d="M-2243.117,1679.728v.6q0,5.391,0,10.782c0,1,.423,1.55,1.18,1.55s1.177-.552,1.177-1.55q0-5.391,0-10.782v-.587c.2.148.335.237.46.337,1.168.934,2.333,1.872,3.5,2.8a1.153,1.153,0,0,0,1.38.126,1.037,1.037,0,0,0,.554-1.17,1.54,1.54,0,0,0-.476-.8c-1.922-1.571-3.864-3.118-5.809-4.661a1.154,1.154,0,0,0-1.6.016q-2.878,2.289-5.742,4.6a1.208,1.208,0,0,0-.292,1.747,1.206,1.206,0,0,0,1.769.1c1.112-.881,2.216-1.772,3.323-2.658C-2243.533,1680.048-2243.367,1679.922-2243.117,1679.728Z" transform="translate(2263.272 -1676.057)" fill="#b11e31"/>
  </g>
</svg>
