<svg xmlns="http://www.w3.org/2000/svg" width="55.83" height="49.308" viewBox="0 0 55.83 49.308">
  <g id="Component_47_12" data-name="Component 47 – 12" transform="translate(0)">
    <path id="Path_52909" data-name="Path 52909" d="M-827.441,732.962c.159-.7.275-1.419.483-2.108a11.135,11.135,0,0,1,10.63-7.934c3.888-.019,7.776-.005,11.664,0,.828,0,1.3.381,1.315,1.049s-.492,1.126-1.314,1.127c-3.852.005-7.7-.018-11.555.008a8.942,8.942,0,0,0-8.861,7.24,9.068,9.068,0,0,0,7.508,10.639,20.355,20.355,0,0,0,2.662.125c2.234.016,4.469,0,6.7.012a.741.741,0,0,0,.708-.359,3.276,3.276,0,0,1,5.445,0,.7.7,0,0,0,.651.364c6.213-.01,12.427.015,18.64-.019A8.916,8.916,0,0,0-774,735.877a9.072,9.072,0,0,0-7.432-10.648,12.542,12.542,0,0,0-1.844-.127c-3.652-.011-7.3,0-10.955-.008a2.829,2.829,0,0,1-.7-.065,1.053,1.053,0,0,1-.79-1.151,1.07,1.07,0,0,1,.969-.949,3.924,3.924,0,0,1,.436-.012c3.779,0,7.558-.007,11.337,0a11.259,11.259,0,0,1,11.192,9.327,11.207,11.207,0,0,1-9.452,12.929,15.814,15.814,0,0,1-1.9.112q-8.8.012-17.6,0h-.685v2.563a3.379,3.379,0,0,1,3.107.655,3.3,3.3,0,0,1,2.752-.721,3.232,3.232,0,0,1,2.273,1.723,3.652,3.652,0,0,1,2.367-.224,3.253,3.253,0,0,1,2.517,3.16c.018,2.252.06,4.506-.017,6.756a14.261,14.261,0,0,1-3.215,8.563,1.471,1.471,0,0,0-.371,1.082c.031.452.016.908,0,1.362a1.983,1.983,0,0,1-1.966,1.995q-6,.025-11.991,0a1.971,1.971,0,0,1-1.972-1.984c-.02-.8.021-1.6-.02-2.4a1.749,1.749,0,0,0-.291-.889c-1.66-2.317-3.344-4.617-5.021-6.922a3.675,3.675,0,0,1-.557-3.842,3.466,3.466,0,0,1,5.273-1.349l.433.332v-9.837c-.2-.01-.393-.026-.585-.026-2.471,0-4.942.011-7.412,0a11.268,11.268,0,0,1-11.159-9.3q-.079-.421-.159-.842Zm33.251,37.052c0-.595.03-1.139-.008-1.678a2.127,2.127,0,0,1,.591-1.622,11.653,11.653,0,0,0,3.015-7.628c.021-2.142.009-4.285,0-6.427a1.143,1.143,0,0,0-1.161-1.285,1.171,1.171,0,0,0-1.225,1.29c-.011.49,0,.98-.011,1.47a1.009,1.009,0,0,1-.68.96,1.092,1.092,0,0,1-1.49-1.128c-.021-1,.009-2-.013-3a1.011,1.011,0,0,0-1.483-.94,1.125,1.125,0,0,0-.571,1.1q0,1.443,0,2.887a1.062,1.062,0,0,1-.678,1.076,1.082,1.082,0,0,1-1.5-1.1c-.021-1.016,0-2.033-.013-3.05a.948.948,0,0,0-.725-.972.916.916,0,0,0-1.132.42,1.856,1.856,0,0,0-.187.831c-.025.98,0,1.961-.026,2.941a1.045,1.045,0,0,1-1.009,1.022,1.066,1.066,0,0,1-1.1-.86,2.937,2.937,0,0,1-.054-.648q-.005-4.3,0-8.606a4.848,4.848,0,0,0-.019-.6,1.078,1.078,0,0,0-1.072-.962,1.076,1.076,0,0,0-1.12.9,4.287,4.287,0,0,0-.035.706q0,6.155,0,12.31c0,.592-.057,1.143-.692,1.4-.608.25-1.035-.072-1.441-.478-.578-.578-1.161-1.151-1.761-1.7a1.22,1.22,0,0,0-1.553-.149,1.248,1.248,0,0,0-.533,1.515,3.259,3.259,0,0,0,.44.8c1.744,2.412,3.511,4.807,5.232,7.236a2.667,2.667,0,0,1,.423,1.3c.065.878.019,1.764.019,2.666Z" transform="translate(827.441 -722.91)" fill="#b11e31"/>
    <path id="Path_52910" data-name="Path 52910" d="M-592.709,783.737c0,1.267.01,2.535,0,3.8a1.08,1.08,0,0,1-1.456,1.109,1.05,1.05,0,0,1-.719-1.051q-.008-3.759,0-7.517a1.048,1.048,0,0,1,.756-1.078,1.054,1.054,0,0,1,1.276.47c1.065,1.535,2.126,3.073,3.254,4.706.025-.223.05-.347.05-.472,0-1.18,0-2.361,0-3.541a1.087,1.087,0,0,1,1.085-1.228,1.079,1.079,0,0,1,1.093,1.219q.008,3.568,0,7.136a1.221,1.221,0,0,1-.868,1.3,1.206,1.206,0,0,1-1.388-.6c-.883-1.265-1.755-2.537-2.632-3.806-.112-.161-.228-.319-.343-.479Z" transform="translate(620.291 -772.818)" fill="#b11e31"/>
    <path id="Path_52911" data-name="Path 52911" d="M-679.231,784.624c-.373,0-.7.022-1.024,0a1.072,1.072,0,0,1-1.056-1.147,1.049,1.049,0,0,1,1.115-1.021c.744-.015,1.489-.018,2.233,0a1.049,1.049,0,0,1,1.092,1.108c-.011,2.563-1.473,4.641-4.063,4.861a4.937,4.937,0,0,1-5.146-4.131,4.7,4.7,0,0,1,2.2-4.867,4.7,4.7,0,0,1,5.2-.065,1.086,1.086,0,0,1,.331,1.777c-.4.4-.848.421-1.492.073a2.71,2.71,0,0,0-3.349.432,2.726,2.726,0,0,0-.442,3.174,2.668,2.668,0,0,0,2.836,1.374A1.955,1.955,0,0,0-679.231,784.624Z" transform="translate(701.566 -772.522)" fill="#b11e31"/>
    <path id="Path_52912" data-name="Path 52912" d="M-500.277,782.751c0-.835,0-1.669,0-2.5,0-.866.382-1.338,1.071-1.344s1.109.493,1.111,1.376c0,1.578,0,3.157,0,4.735a1.457,1.457,0,0,0,1.5,1.5A1.485,1.485,0,0,0-495,785.033c.005-1.615,0-3.229,0-4.844a1.138,1.138,0,0,1,.928-1.276,1.033,1.033,0,0,1,1.235.991c.021,1.923.071,3.849-.028,5.767-.092,1.772-2.18,3.237-4.088,3a3.577,3.577,0,0,1-3.325-3.746C-500.279,784.2-500.277,783.477-500.277,782.751Z" transform="translate(536.011 -772.785)" fill="#b11e31"/>
    <path id="Path_52913" data-name="Path 52913" d="M-781.049,777.852a5.616,5.616,0,0,1,2.762,1.066,1.063,1.063,0,0,1,.3,1.528,1.123,1.123,0,0,1-1.542.273,7.868,7.868,0,0,0-1.613-.548,1,1,0,0,0-.659.186.417.417,0,0,0,.076.786c.716.306,1.452.565,2.162.884a2.933,2.933,0,0,1,2.01,2.6,3.126,3.126,0,0,1-3.229,3.123,4.52,4.52,0,0,1-3.451-1.338,1.1,1.1,0,0,1-.113-1.635,1.074,1.074,0,0,1,1.6.047,2.277,2.277,0,0,0,2.236.66,1.173,1.173,0,0,0,.726-.678c.048-.184-.31-.586-.573-.718-.71-.356-1.466-.62-2.205-.919A2.43,2.43,0,0,1-784.212,781a2.506,2.506,0,0,1,1.384-2.569A10.4,10.4,0,0,1-781.049,777.852Z" transform="translate(789.332 -771.851)" fill="#b11e31"/>
    <path id="Path_52914" data-name="Path 52914" d="M-420.284,786.374c0,.737.007,1.388,0,2.04-.01.784-.448,1.292-1.1,1.293s-1.081-.5-1.082-1.293q-.007-3.621,0-7.242c0-.877.39-1.252,1.268-1.257.654,0,1.307-.008,1.961,0a3.229,3.229,0,0,1,3.244,3.2,3.222,3.222,0,0,1-3.183,3.257C-419.517,786.384-419.859,786.374-420.284,786.374Zm.022-2.194c.726-.026,1.516.251,1.927-.544a1.257,1.257,0,0,0-.043-1.052c-.441-.721-1.2-.449-1.884-.483Z" transform="translate(466.701 -773.684)" fill="#b11e31"/>
    <path id="Path_52915" data-name="Path 52915" d="M-709.878,783.819c0,1.144,0,2.287,0,3.431a2.83,2.83,0,0,1-.071.7,1.065,1.065,0,0,1-1.065.769,1.07,1.07,0,0,1-1.015-.9,4.291,4.291,0,0,1-.031-.651q0-3.349,0-6.7a5.331,5.331,0,0,1,.015-.544,1.053,1.053,0,0,1,1.031-.995,1.052,1.052,0,0,1,1.1.915,4.007,4.007,0,0,1,.034.651C-709.876,781.6-709.878,782.712-709.878,783.819Z" transform="translate(724.666 -772.812)" fill="#b11e31"/>
    <path id="Path_52916" data-name="Path 52916" d="M-580.811,723.014a1.069,1.069,0,0,1,1.092,1.094,1.107,1.107,0,0,1-1.079,1.07,1.11,1.11,0,0,1-1.093-1.111A1.07,1.07,0,0,1-580.811,723.014Z" transform="translate(608.71 -723.003)" fill="#b11e31"/>
  </g>
</svg>
