<svg xmlns="http://www.w3.org/2000/svg" width="26.193" height="26.192" viewBox="0 0 26.193 26.192">
  <g id="Component_94_2" data-name="Component 94 – 2" transform="translate(0.5 0.5)">
    <path id="Path_52866" data-name="Path 52866" d="M77.15,25.408h0a12.6,12.6,0,1,1,12.6-12.6A12.6,12.6,0,0,1,77.15,25.408Z" transform="translate(-64.554 -0.216)" fill="none" stroke="#fff" stroke-width="1"/>
    <path id="Path_52867" data-name="Path 52867" d="M76.811,24.042a6.944,6.944,0,0,0,10.683-6.166,4.937,4.937,0,0,0,1.218-1.264,4.892,4.892,0,0,1-1.4.384,2.446,2.446,0,0,0,1.074-1.351,4.9,4.9,0,0,1-1.55.593,2.444,2.444,0,0,0-4.161,2.227,6.927,6.927,0,0,1-5.032-2.551,2.445,2.445,0,0,0,.755,3.26,2.437,2.437,0,0,1-1.106-.306,2.444,2.444,0,0,0,1.958,2.425,2.44,2.44,0,0,1-1.1.042,2.442,2.442,0,0,0,2.28,1.7,4.906,4.906,0,0,1-3.615,1.011" transform="translate(-70.165 -7.198)" fill="#fff"/>
  </g>
</svg>
