<svg xmlns="http://www.w3.org/2000/svg" width="26.193" height="26.192" viewBox="0 0 26.193 26.192">
  <g id="Component_93_3" data-name="Component 93 – 3" transform="translate(0.5 0.5)">
    <path id="Path_52873" data-name="Path 52873" d="M12.812,25.408h0a12.6,12.6,0,1,1,12.6-12.6A12.6,12.6,0,0,1,12.812,25.408Z" transform="translate(-0.216 -0.216)" fill="none" stroke="#fff" stroke-width="1"/>
    <path id="Path_52874" data-name="Path 52874" d="M18.278,13.256c1.635,0,1.829.006,2.475.036a3.38,3.38,0,0,1,1.137.211,2.029,2.029,0,0,1,1.162,1.162,3.409,3.409,0,0,1,.211,1.138c.029.645.036.839.036,2.474s-.007,1.829-.036,2.475a3.4,3.4,0,0,1-.211,1.137,2.028,2.028,0,0,1-1.162,1.162,3.38,3.38,0,0,1-1.137.211c-.646.029-.839.036-2.475.036s-1.829-.007-2.475-.036a3.38,3.38,0,0,1-1.137-.211A2.028,2.028,0,0,1,13.5,21.888a3.4,3.4,0,0,1-.211-1.137c-.029-.646-.035-.839-.035-2.475s.006-1.829.035-2.474a3.409,3.409,0,0,1,.211-1.138A2.029,2.029,0,0,1,14.666,13.5a3.38,3.38,0,0,1,1.137-.211c.646-.03.839-.036,2.475-.036m0-1.1c-1.663,0-1.872.007-2.525.037a4.5,4.5,0,0,0-1.486.285,3.13,3.13,0,0,0-1.791,1.791,4.476,4.476,0,0,0-.285,1.487c-.03.653-.037.862-.037,2.524s.007,1.872.037,2.525a4.476,4.476,0,0,0,.285,1.487,3.13,3.13,0,0,0,1.791,1.791,4.5,4.5,0,0,0,1.486.285c.653.03.862.037,2.525.037s1.872-.007,2.525-.037a4.5,4.5,0,0,0,1.486-.285,3.133,3.133,0,0,0,1.791-1.791,4.5,4.5,0,0,0,.285-1.487c.029-.653.036-.862.036-2.525s-.007-1.871-.036-2.524a4.5,4.5,0,0,0-.285-1.487,3.133,3.133,0,0,0-1.791-1.791A4.5,4.5,0,0,0,20.8,12.19c-.653-.03-.862-.037-2.525-.037" transform="translate(-5.682 -5.681)" fill="#fff"/>
    <path id="Path_52875" data-name="Path 52875" d="M20.793,17.648a3.145,3.145,0,1,0,3.145,3.145,3.145,3.145,0,0,0-3.145-3.145m0,5.186a2.041,2.041,0,1,1,2.041-2.041,2.042,2.042,0,0,1-2.041,2.041" transform="translate(-8.197 -8.197)" fill="#fff"/>
    <path id="Path_52876" data-name="Path 52876" d="M29.591,16.8a.735.735,0,1,1-.735-.735.735.735,0,0,1,.735.735" transform="translate(-12.991 -7.471)" fill="#fff"/>
  </g>
</svg>
