<svg xmlns="http://www.w3.org/2000/svg" width="26.193" height="26.192" viewBox="0 0 26.193 26.192">
  <g id="Component_96_3" data-name="Component 96 – 3" transform="translate(0.5 0.5)">
    <path id="Path_52868" data-name="Path 52868" d="M205.827,25.408h0a12.6,12.6,0,1,1,12.6-12.6A12.6,12.6,0,0,1,205.827,25.408Z" transform="translate(-193.231 -0.216)" fill="none" stroke="#fff" stroke-width="1"/>
    <rect id="Rectangle_45694" data-name="Rectangle 45694" width="2.311" height="7.468" transform="translate(7.22 10.099)" fill="#fff"/>
    <path id="Path_52869" data-name="Path 52869" d="M207.5,14.713a1.378,1.378,0,1,0-1.367-1.378,1.373,1.373,0,0,0,1.367,1.378" transform="translate(-199.14 -5.591)" fill="#fff"/>
    <path id="Path_52870" data-name="Path 52870" d="M215.754,22.2c0-1.05.483-1.675,1.409-1.675.85,0,1.258.6,1.258,1.675v3.92h2.3V21.39c0-2-1.134-2.967-2.717-2.967a2.6,2.6,0,0,0-2.25,1.234V18.651h-2.218v7.468h2.218Z" transform="translate(-202.527 -8.551)" fill="#fff"/>
  </g>
</svg>
