<svg id="Component_40_4" data-name="Component 40 – 4" xmlns="http://www.w3.org/2000/svg" width="95.707" height="95.707" viewBox="0 0 95.707 95.707">
  <path id="Path_52880" data-name="Path 52880" d="M174.046,74.425V51.638A6.835,6.835,0,0,0,167.21,44.8H117.078a2.278,2.278,0,0,0-2.279,2.279V69.868a6.837,6.837,0,0,0,6.836,6.837h50.132a2.279,2.279,0,0,0,2.279-2.279Zm-29.623-6.836a6.837,6.837,0,1,1,4.835-2A6.834,6.834,0,0,1,144.423,67.589Zm0,56.968a2.278,2.278,0,0,1-2.279,2.279H130.751a2.279,2.279,0,0,1-2.279-2.279v-31.9h-2.279a2.278,2.278,0,0,1-1.6-3.873l4.557-4.557h0a2.187,2.187,0,0,1,3.19,0l4.558,4.558a2.278,2.278,0,0,1-1.6,3.873h-2.279v29.623h9.115a2.277,2.277,0,0,1,2.279,2.279Zm36.46-63.8h0a2.278,2.278,0,0,1,2.279-2.279h11.394a2.279,2.279,0,0,1,2.279,2.279v31.9h2.279a2.279,2.279,0,0,1,1.6,3.874l-4.557,4.557h0a2.188,2.188,0,0,1-3.19,0L188.4,96.529a2.279,2.279,0,0,1,1.6-3.874h2.279V63.032h-9.115a2.278,2.278,0,0,1-2.279-2.279Zm27.345,47.853H158.1a6.837,6.837,0,0,0-6.837,6.837V138.23a2.279,2.279,0,0,0,2.279,2.279H203.67a6.835,6.835,0,0,0,6.836-6.836V110.886a2.279,2.279,0,0,0-2.279-2.279Zm-27.345,22.787h0a6.835,6.835,0,1,1,4.834-2,6.837,6.837,0,0,1-4.834,2Z" transform="translate(-114.799 -44.802)" fill="#b11e31"/>
</svg>
