<svg id="verified_user_FILL0_wght400_GRAD0_opsz48" xmlns="http://www.w3.org/2000/svg" width="35.57" height="44.463" viewBox="0 0 35.57 44.463">
  <path id="verified_user_FILL0_wght400_GRAD0_opsz48-2" data-name="verified_user_FILL0_wght400_GRAD0_opsz48" d="M175.34,204.679l12.672-12.672-2.334-2.279L175.506,199.9l-5.613-5.613-2.445,2.445Zm2.445,14.784A21.826,21.826,0,0,1,165,210.431a26.36,26.36,0,0,1-5-15.534V181.669L177.785,175l17.785,6.669V194.9a26.36,26.36,0,0,1-5,15.534A21.826,21.826,0,0,1,177.785,219.463Zm0-3.446a20.051,20.051,0,0,0,10.421-7.976,22.676,22.676,0,0,0,4.029-13.144V184l-14.45-5.447L163.335,184V194.9a22.676,22.676,0,0,0,4.029,13.144A20.051,20.051,0,0,0,177.785,216.017ZM177.785,197.287Z" transform="translate(-160 -175)" fill="#b11e31"/>
</svg>
